<?xml version="1.0" encoding="utf-8"?>
<!-- Generator: Adobe Illustrator 19.0.0, SVG Export Plug-In . SVG Version: 6.00 Build 0)  -->
<svg version="1.1" id="Layer_1" xmlns="http://www.w3.org/2000/svg" xmlns:xlink="http://www.w3.org/1999/xlink" x="0px" y="0px"
	 viewBox="0 0 612 792" style="enable-background:new 0 0 612 792;" xml:space="preserve">
<style type="text/css">
	.st0{fill:#212121;}
</style>
<path id="ic_pause" class="st0" d="M7.9,694.9c5,5,10.7,7.1,17.9,7.1h203.5c7.1,0,12.9-2.1,17.8-7.1c5-5,7.9-11.4,7.9-17.8V115.7
	c0-7.1-2.9-12.9-7.9-17.9c-5-5-10.8-7.9-17.8-7.9H25.7c-7.1,0-12.9,2.9-17.9,7.9c-5,5-7.9,10.7-7.9,17.9V677
	C0,683.4,2.9,689.9,7.9,694.9z M364.9,694.9c5,5,10.7,7.1,17.9,7.1h203.5c7.1,0,12.9-2.1,17.8-7.1c5-5,7.9-11.4,7.9-17.8V115.7
	c0-7.1-2.9-12.9-7.9-17.9c-5-5-10.7-7.9-17.8-7.9H382.8c-7.1,0-12.9,2.9-17.9,7.9c-5,5-7.9,10.7-7.9,17.9V677
	C357.1,683.4,359.9,689.9,364.9,694.9z"/>
</svg>
