<?xml version="1.0" encoding="utf-8"?>
<!-- Generator: Adobe Illustrator 19.0.0, SVG Export Plug-In . SVG Version: 6.00 Build 0)  -->
<svg version="1.1" id="Layer_1" xmlns="http://www.w3.org/2000/svg" xmlns:xlink="http://www.w3.org/1999/xlink" x="0px" y="0px"
	 viewBox="0 0 612 792" style="enable-background:new 0 0 612 792;" xml:space="preserve">
<style type="text/css">
	.st0{fill:#212121;}
</style>
<path id="ic_step_forward" class="st0" d="M66,784.5l365.6-365.2c2.7-2.8,4.6-6.5,6.4-10.2v349.5c0,8.3,3.7,16.6,10.2,23
	c6.5,6.5,13.9,9.2,23.1,9.2h65.5c9.2,0,16.6-2.8,23-9.2c6.5-6.5,10.2-14.8,10.2-23V33.9c0-9.2-3.6-16.6-10.2-23
	c-6.5-6.5-13.8-10.2-23-10.2h-65.5c-9.2,0-16.6,3.7-23.1,10.2S438,24.6,438,33.9v348.5c-1.8-3.7-3.7-6.5-6.4-9.2L66,8.1
	c-7.4-7.4-12-9.2-16.6-7.4C44.8,3.4,42,8.1,42,17.3v757.9c0,8.3,2.8,13.9,7.4,15.7C54,793.7,58.6,790.9,66,784.5z"/>
</svg>
