<?xml version="1.0" encoding="utf-8"?>
<!-- Generator: Adobe Illustrator 19.0.0, SVG Export Plug-In . SVG Version: 6.00 Build 0)  -->
<svg version="1.1" id="Layer_1" xmlns="http://www.w3.org/2000/svg" xmlns:xlink="http://www.w3.org/1999/xlink" x="0px" y="0px"
	 viewBox="0 0 612 792" style="enable-background:new 0 0 612 792;" xml:space="preserve">
<style type="text/css">
	.st0{fill:#212121;}
</style>
<path id="ic_step_backward" class="st0" d="M52.2,781.7c6.5,6.5,13.9,9.2,23,9.2h65.6c9.2,0,16.6-2.8,23-9.2
	c6.5-6.5,10.2-14.8,10.2-23V409.1c0.9,3.7,3.7,7.4,6.5,10.2L546,784.5c7.3,6.5,12,9.2,16.6,6.5c4.6-1.8,7.4-7.4,7.4-15.7V17.3
	c0-9.2-2.8-13.9-7.4-16.6c-4.6-1.8-9.2,0-16.6,7.4L180.5,373.2c-2.8,2.7-5.5,5.5-6.5,9.2V33.9c0-9.2-3.7-16.6-10.2-23
	S150,0.7,140.8,0.7H75.2c-9.2,0-16.6,3.7-23,10.2S42,24.6,42,33.9v724.8C42,766.9,45.7,775.2,52.2,781.7z"/>
</svg>
